<svg width="16" height="16" viewBox="0 0 16 16" fill="none" xmlns="http://www.w3.org/2000/svg">
<path d="M13.2552 0.382812H2.44804C1.14443 0.382812 0.0839844 1.44326 0.0839844 2.74687V13.554C0.0839844 14.8576 1.14477 15.9181 2.44804 15.9181V15.8873C2.72396 15.9181 3.22548 15.9181 4.13666 15.9181H13.2552C14.5588 15.9181 15.6192 14.8573 15.6192 13.554V2.74687C15.6192 1.44326 14.5584 0.382812 13.2552 0.382812ZM14.9438 13.554C14.9438 14.4851 14.1863 15.2426 13.2552 15.2426C13.2552 15.2426 2.52268 15.2426 2.44804 15.2426C1.51694 15.2426 0.75943 14.4851 0.75943 13.554V2.74687C0.75943 1.81577 1.51694 1.05826 2.44804 1.05826H13.2552C14.1863 1.05826 14.9438 1.81577 14.9438 2.74687V13.554Z" fill="#E4470B"/>
<path fill-rule="evenodd" clip-rule="evenodd" d="M2.53292 16.001H2.44849C1.0986 16.001 0 14.9027 0 13.5525V2.74536C0 1.39512 1.09825 0.296875 2.44849 0.296875H13.2556C14.6055 0.296875 15.7041 1.39512 15.7041 2.74536V13.5525C15.7041 14.9024 14.6059 16.001 13.2556 16.001H4.12415C3.31683 16.001 2.82761 16.001 2.53292 15.9784V16.001ZM2.53292 15.8937C2.82286 15.9165 3.31204 15.9165 4.1371 15.9165H13.2556C14.5592 15.9165 15.6197 14.8558 15.6197 13.5525V2.74536C15.6197 1.44175 14.5589 0.381306 13.2556 0.381306H2.44849C1.14488 0.381306 0.0844306 1.44175 0.0844306 2.74536V13.5525C0.0844306 14.8278 1.09971 15.8704 2.36406 15.9151C2.39095 15.916 2.41796 15.9165 2.44507 15.9165M2.53292 15.8937C2.50266 15.8913 2.47457 15.8887 2.44849 15.8858V15.9165M13.2556 15.1567C14.1401 15.1567 14.8598 14.437 14.8598 13.5525V2.74536C14.8598 1.86089 14.1401 1.14118 13.2556 1.14118H2.44849C1.56402 1.14118 0.844306 1.86089 0.844306 2.74536V13.5525C0.844306 14.437 1.56402 15.1567 2.44849 15.1567H13.2555C13.2556 15.1567 13.2556 15.1567 13.2556 15.2411H2.44849C1.51739 15.2411 0.759876 14.4836 0.759876 13.5525V2.74536C0.759876 1.81426 1.51739 1.05675 2.44849 1.05675H13.2556C14.1867 1.05675 14.9442 1.81426 14.9442 2.74536V13.5525C14.9442 14.4836 14.1867 15.2411 13.2556 15.2411V15.1567Z" fill="#E4470B"/>
<path d="M7.851 3.08203C5.05769 3.08203 2.78516 5.35457 2.78516 8.14787C2.78516 10.9412 5.05769 13.2137 7.851 13.2137C10.6443 13.2137 12.9168 10.9412 12.9168 8.14787C12.9168 5.35457 10.6443 3.08203 7.851 3.08203ZM7.851 12.5383C5.4302 12.5383 3.4606 10.5687 3.4606 8.14787C3.4606 5.72708 5.4302 3.75748 7.851 3.75748C10.2718 3.75748 12.2414 5.72708 12.2414 8.14787C12.2414 10.5687 10.2718 12.5383 7.851 12.5383Z" fill="#E4470B"/>
<path fill-rule="evenodd" clip-rule="evenodd" d="M2.70117 8.14832C2.70117 5.30838 5.01151 2.99805 7.85144 2.99805C10.6914 2.99805 13.0017 5.30838 13.0017 8.14832C13.0017 10.9883 10.6914 13.2986 7.85144 13.2986C5.01151 13.2986 2.70117 10.9883 2.70117 8.14832ZM3.54548 8.14832C3.54548 10.5225 5.47728 12.4543 7.85144 12.4543C10.2256 12.4543 12.1574 10.5225 12.1574 8.14832C12.1574 5.77415 10.2256 3.84235 7.85144 3.84235C5.47728 3.84235 3.54548 5.77415 3.54548 8.14832ZM2.7856 8.14832C2.7856 5.35501 5.05814 3.08248 7.85144 3.08248C10.6447 3.08248 12.9173 5.35501 12.9173 8.14832C12.9173 10.9416 10.6447 13.2142 7.85144 13.2142C5.05814 13.2142 2.7856 10.9416 2.7856 8.14832ZM3.46105 8.14832C3.46105 10.5691 5.43065 12.5387 7.85144 12.5387C10.2722 12.5387 12.2418 10.5691 12.2418 8.14832C12.2418 5.72752 10.2722 3.75792 7.85144 3.75792C5.43065 3.75792 3.46105 5.72752 3.46105 8.14832Z" fill="#E4470B"/>
<path d="M7.83663 5.0957C6.15207 5.0957 4.78125 6.46652 4.78125 8.15108C4.78125 9.83564 6.15207 11.2065 7.83663 11.2065C9.52119 11.2065 10.892 9.83564 10.892 8.15108C10.892 6.46652 9.52119 5.0957 7.83663 5.0957ZM7.83663 10.531C6.52424 10.531 5.4567 9.46347 5.4567 8.15108C5.4567 6.83869 6.52424 5.77115 7.83663 5.77115C9.14902 5.77115 10.2166 6.83869 10.2166 8.15108C10.2166 9.46347 9.14902 10.531 7.83663 10.531Z" fill="#E4470B"/>
<path fill-rule="evenodd" clip-rule="evenodd" d="M4.69727 8.14957C4.69727 6.41838 6.10588 5.00977 7.83707 5.00977C9.56826 5.00977 10.9769 6.41838 10.9769 8.14957C10.9769 9.88076 9.56826 11.2894 7.83707 11.2894C6.10588 11.2894 4.69727 9.88076 4.69727 8.14957ZM5.54157 8.14957C5.54157 9.41533 6.57131 10.4451 7.83707 10.4451C9.10283 10.4451 10.1326 9.41533 10.1326 8.14957C10.1326 6.88381 9.10283 5.85407 7.83707 5.85407C6.57131 5.85407 5.54157 6.88381 5.54157 8.14957ZM4.7817 8.14957C4.7817 6.46501 6.15251 5.0942 7.83707 5.0942C9.52163 5.0942 10.8924 6.46501 10.8924 8.14957C10.8924 9.83413 9.52163 11.205 7.83707 11.205C6.15251 11.205 4.7817 9.83413 4.7817 8.14957ZM5.45714 8.14957C5.45714 9.46196 6.52468 10.5295 7.83707 10.5295C9.14946 10.5295 10.217 9.46196 10.217 8.14957C10.217 6.83718 9.14946 5.76964 7.83707 5.76964C6.52468 5.76964 5.45714 6.83718 5.45714 8.14957Z" fill="#E4470B"/>
<path d="M12.9176 3.75714C13.2907 3.75714 13.5931 3.45473 13.5931 3.0817C13.5931 2.70866 13.2907 2.40625 12.9176 2.40625C12.5446 2.40625 12.2422 2.70866 12.2422 3.0817C12.2422 3.45473 12.5446 3.75714 12.9176 3.75714Z" fill="#E4470B"/>
<path fill-rule="evenodd" clip-rule="evenodd" d="M13.678 3.08214C13.678 3.50181 13.3377 3.84202 12.9181 3.84202C12.4984 3.84202 12.1582 3.50181 12.1582 3.08214C12.1582 2.66247 12.4984 2.32227 12.9181 2.32227C13.3377 2.32227 13.678 2.66247 13.678 3.08214ZM13.5935 3.08214C13.5935 3.45518 13.2911 3.75759 12.9181 3.75759C12.545 3.75759 12.2426 3.45518 12.2426 3.08214C12.2426 2.7091 12.545 2.4067 12.9181 2.4067C13.2911 2.4067 13.5935 2.7091 13.5935 3.08214Z" fill="#E4470B"/>
</svg>
