<svg width="22" height="14" viewBox="0 0 22 14" fill="none" xmlns="http://www.w3.org/2000/svg">
<path d="M21.0225 10.6178C20.5439 10.0367 20.0033 9.51782 19.4804 9.01603C19.2967 8.83965 19.1066 8.65727 18.9235 8.47619C18.9235 8.47615 18.9235 8.4761 18.9234 8.47606C18.6772 8.23272 18.5567 8.06 18.5441 7.93243C18.5317 7.80703 18.6163 7.62099 18.8108 7.346C19.1017 6.93237 19.4117 6.51805 19.7116 6.11741C19.9782 5.76125 20.2538 5.39296 20.518 5.02257L20.5772 4.93941C21.0927 4.21657 21.6256 3.46913 21.9111 2.55829C21.9927 2.29714 22.0774 1.91068 21.8731 1.57143C21.6687 1.23208 21.2899 1.13151 21.0229 1.08544C20.8925 1.0628 20.7687 1.06093 20.6536 1.06093L17.3103 1.05792C16.7323 1.04817 16.3313 1.32578 16.1128 1.88325C15.9379 2.32849 15.7313 2.84447 15.492 3.33394C15.0342 4.27887 14.4525 5.36722 13.6092 6.27402L13.5718 6.31442C13.5144 6.37651 13.4206 6.47804 13.3724 6.50133C13.281 6.44317 13.1756 6.11048 13.1804 5.9362C13.1806 5.93188 13.1806 5.92762 13.1806 5.92335L13.1776 2.00904C13.1776 1.98914 13.1763 1.96924 13.1737 1.94952C13.0987 1.39109 12.9525 0.831259 12.0802 0.656841C12.0522 0.651224 12.0238 0.648438 11.9954 0.648438H8.51766C7.86338 0.648438 7.5173 0.952037 7.23985 1.28119C7.15954 1.37715 6.94616 1.63195 7.05487 1.94343C7.16487 2.25861 7.49264 2.32152 7.60023 2.34216C7.97922 2.41504 8.1752 2.63209 8.23587 3.04702C8.3558 3.85323 8.37049 4.7157 8.28219 5.7599C8.25757 6.04025 8.21177 6.25334 8.13786 6.43054C8.11741 6.47961 8.09945 6.51 8.0869 6.52789C8.06688 6.51971 8.03572 6.50403 7.99258 6.47412C7.72626 6.28947 7.52555 6.00242 7.33146 5.7249C6.55622 4.61582 5.90412 3.39089 5.33766 1.97956C5.10438 1.40123 4.66584 1.07821 4.10363 1.06985C3.0325 1.05179 2.04185 1.05222 1.07608 1.07125C0.62057 1.07926 0.301139 1.22455 0.126513 1.50316C-0.0483279 1.78229 -0.0419255 2.13818 0.145591 2.56112C1.48605 5.58144 2.70319 7.7786 4.09195 9.68536C5.06979 11.0278 6.05412 11.9596 7.18967 12.6179C8.38274 13.3095 9.72827 13.6485 11.2892 13.6484C11.4668 13.6484 11.6474 13.644 11.8304 13.6352C12.7934 13.5907 13.1853 13.2026 13.228 12.2522C13.252 11.7499 13.3072 11.3429 13.4986 10.9894C13.5521 10.8904 13.6125 10.8241 13.6601 10.8119C13.7108 10.7991 13.8005 10.8305 13.9003 10.8962C14.0828 11.0163 14.24 11.1792 14.3692 11.3221C14.5001 11.4674 14.6325 11.6175 14.7606 11.7626C15.0331 12.0716 15.315 12.3911 15.6102 12.6959C16.2781 13.3857 17.048 13.7021 17.8996 13.6358L20.9592 13.6372C20.9592 13.6372 20.9593 13.6372 20.9593 13.6372C20.969 13.6372 20.9788 13.6369 20.9885 13.6363C21.3414 13.6125 21.6465 13.4145 21.8257 13.093C22.0414 12.7059 22.0381 12.2155 21.8168 11.7807C21.5858 11.3288 21.2861 10.9397 21.0225 10.6178ZM21.0625 12.6564C21.0203 12.7321 20.9683 12.7459 20.9414 12.7492L17.8824 12.7477C17.8824 12.7477 17.8823 12.7477 17.8821 12.7477C17.8701 12.7477 17.858 12.7482 17.846 12.7493C17.2434 12.8001 16.7311 12.5855 16.2358 12.0739C15.9548 11.7838 15.6799 11.4722 15.4141 11.1708C15.2845 11.024 15.1506 10.8721 15.016 10.7228C14.8491 10.5381 14.6428 10.3259 14.3777 10.1515C13.9809 9.89043 13.652 9.89831 13.446 9.95091C13.2422 10.0029 12.9525 10.1514 12.7302 10.5626C12.4421 11.0946 12.3786 11.6685 12.3527 12.2107C12.3377 12.5423 12.2824 12.6299 12.2593 12.6522C12.229 12.6813 12.1277 12.7326 11.79 12.7483C10.1668 12.8256 8.80457 12.531 7.62494 11.8472C6.59876 11.2523 5.70019 10.3977 4.7972 9.1581C3.4469 7.30424 2.2588 5.15741 0.945029 2.19717C0.897419 2.08994 0.882724 2.02302 0.87847 1.98718C0.911985 1.97604 0.97747 1.96136 1.09228 1.95923C2.04826 1.94047 3.02855 1.93994 4.09001 1.95788C4.23533 1.96006 4.40081 2.00425 4.5261 2.3149C5.11796 3.78953 5.80164 5.07285 6.61633 6.23831C6.83264 6.54766 7.10188 6.93272 7.49758 7.20706C7.86002 7.45855 8.15415 7.44653 8.33711 7.39219C8.52016 7.33781 8.77419 7.18673 8.94529 6.77624C9.05568 6.51165 9.12241 6.21371 9.15545 5.83727C9.24986 4.72036 9.2331 3.79176 9.10282 2.91588C9.01099 2.28834 8.69122 1.83501 8.18749 1.60352C8.27695 1.55632 8.37776 1.53664 8.51775 1.53664H11.95C12.1431 1.58053 12.1813 1.63208 12.1944 1.64971C12.25 1.72464 12.2818 1.90189 12.3013 2.04039L12.3042 5.91861C12.2964 6.29039 12.4748 7.11493 13.0819 7.34103C13.0869 7.34291 13.0919 7.34465 13.097 7.3463C13.6497 7.52934 14.0153 7.13396 14.2116 6.92153L14.2466 6.88383C15.1702 5.89048 15.7922 4.72981 16.2782 3.72688C16.5314 3.20898 16.7459 2.67327 16.9273 2.2115C17.018 1.97991 17.1006 1.94177 17.2977 1.946C17.3004 1.94608 17.3031 1.94608 17.3058 1.94608L20.6533 1.94909C20.7312 1.94909 20.8124 1.95 20.8755 1.96093C21.035 1.98845 21.1007 2.02197 21.1223 2.03586C21.1245 2.06159 21.124 2.13561 21.0758 2.29009C20.833 3.06461 20.3637 3.72266 19.867 4.41937L19.8076 4.50266C19.5495 4.86456 19.277 5.22868 19.0134 5.58087C18.7096 5.9867 18.3956 6.40629 18.0979 6.82975C17.4614 7.72966 17.5173 8.32685 18.3117 9.11195C18.4994 9.29764 18.6918 9.48234 18.878 9.66094C19.4057 10.1674 19.9041 10.6458 20.349 11.1859C20.5819 11.4704 20.8459 11.8121 21.0383 12.1886C21.1387 12.3857 21.1141 12.5638 21.0625 12.6564Z" fill="#E4470B"/>
</svg>
