<svg width="22" height="16" viewBox="0 0 22 16" fill="none" xmlns="http://www.w3.org/2000/svg">
<path d="M17.4775 0.457031H4.86682C2.57089 0.457031 0.703125 2.33078 0.703125 4.63354V11.6632C0.703125 13.9664 2.57089 15.8397 4.86682 15.8397H17.4775C19.7735 15.8397 21.6412 13.966 21.6412 11.6632V4.63354C21.6412 2.33078 19.7735 0.457031 17.4775 0.457031ZM20.7866 11.6636C20.7866 13.4955 19.3022 14.9855 17.4775 14.9855H4.86682C3.04221 14.9855 1.55774 13.4951 1.55774 11.6636V4.63354C1.55774 2.8021 3.04221 1.31165 4.86682 1.31165H17.4775C19.3022 1.31165 20.7866 2.8021 20.7866 4.63354V11.6636Z" fill="#E4470B"/>
<path d="M14.958 7.9948L9.03763 4.52719C8.90602 4.45028 8.74236 4.44899 8.60947 4.52505C8.47657 4.60112 8.39453 4.74255 8.39453 4.89596V11.8307C8.39453 11.9837 8.47657 12.1256 8.60904 12.2017C8.67485 12.2393 8.74834 12.2581 8.82184 12.2581C8.89662 12.2581 8.97097 12.2384 9.03763 12.1995L14.958 8.73276C15.0887 8.65627 15.1695 8.51569 15.1695 8.36399C15.1695 8.2123 15.0892 8.07129 14.958 7.9948ZM9.24915 11.0851V5.64118L13.8966 8.36357L9.24915 11.0851Z" fill="#E4470B"/>
</svg>
